{
	"asset":{
		"generator":"Khronos glTF Blender I/O v4.5.47",
		"version":"2.0"
	},
	"scene":0,
	"scenes":[
		{
			"name":"Scene",
			"nodes":[
				0,
				1,
				2,
				3,
				4,
				5,
				6
			]
		}
	],
	"nodes":[
		{
			"mesh":0,
			"name":"Palm Tree 1",
			"rotation":[
				0.10257153958082199,
				-0.6996277570724487,
				0.6996278762817383,
				0.1025715172290802
			],
			"scale":[
				0.009999999776482582,
				0.009999999776482582,
				0.009999999776482582
			],
			"translation":[
				-2.255431890487671,
				0,
				0
			]
		},
		{
			"mesh":1,
			"name":"Palm Tree 1.001",
			"rotation":[
				0.29152464866638184,
				-0.6442152857780457,
				0.6442153453826904,
				0.29152461886405945
			],
			"scale":[
				0.009999999776482582,
				0.009999999776482582,
				0.009999999776482582
			],
			"translation":[
				2.2982897758483887,
				0,
				0
			]
		},
		{
			"mesh":2,
			"name":"Plane",
			"scale":[
				-11.14618968963623,
				-11.14618968963623,
				-11.14618968963623
			]
		},
		{
			"mesh":3,
			"name":"Palm Tree 1.002",
			"rotation":[
				0.08423340320587158,
				0.5608339905738831,
				-0.7585749626159668,
				0.3208331763744354
			],
			"scale":[
				0.013007440604269505,
				0.01300743967294693,
				0.01300744153559208
			],
			"translation":[
				-4.503237247467041,
				-0.17712481319904327,
				0
			]
		},
		{
			"mesh":4,
			"name":"Palm Tree 1.003",
			"rotation":[
				0.004353471100330353,
				0.7741280794143677,
				-0.6320111751556396,
				0.03562038764357567
			],
			"scale":[
				0.015874899923801422,
				0.015874899923801422,
				0.015874899923801422
			],
			"translation":[
				-7.196615219116211,
				0,
				0
			]
		},
		{
			"mesh":5,
			"name":"Palm Tree 1.004",
			"rotation":[
				0.455716997385025,
				0.5406681299209595,
				-0.5406681895256042,
				0.45571690797805786
			],
			"scale":[
				0.012502155266702175,
				0.012502155266702175,
				0.01250215619802475
			],
			"translation":[
				5.776376724243164,
				0,
				0.5957834124565125
			]
		},
		{
			"mesh":6,
			"name":"Palm Tree 1.005",
			"rotation":[
				0.39726388454437256,
				0.7148523330688477,
				-0.4585908353328705,
				0.3476521074771881
			],
			"scale":[
				0.01698017306625843,
				0.01698017306625843,
				0.01698017306625843
			],
			"translation":[
				8.819703102111816,
				0,
				-1.8678615093231201
			]
		}
	],
	"materials":[
		{
			"doubleSided":true,
			"name":"Plam Tree",
			"pbrMetallicRoughness":{
				"baseColorFactor":[
					0.16569557785987854,
					0.043655019253492355,
					0,
					1
				],
				"metallicFactor":0,
				"roughnessFactor":0.5
			}
		},
		{
			"doubleSided":true,
			"name":"Material.001",
			"pbrMetallicRoughness":{
				"baseColorFactor":[
					0.005772750824689865,
					0.8000000715255737,
					0,
					1
				],
				"metallicFactor":0,
				"roughnessFactor":0.5
			}
		},
		{
			"doubleSided":true,
			"name":"Material.002",
			"pbrMetallicRoughness":{
				"baseColorFactor":[
					0.8000000715255737,
					0.4416961669921875,
					0.005235821940004826,
					1
				],
				"metallicFactor":0,
				"roughnessFactor":0.18518519401550293
			}
		}
	],
	"meshes":[
		{
			"name":"Cylinder.004",
			"primitives":[
				{
					"attributes":{
						"POSITION":0,
						"NORMAL":1,
						"TEXCOORD_0":2
					},
					"indices":3,
					"material":0
				},
				{
					"attributes":{
						"POSITION":4,
						"NORMAL":5,
						"TEXCOORD_0":6
					},
					"indices":7,
					"material":1
				}
			]
		},
		{
			"name":"Cylinder.001",
			"primitives":[
				{
					"attributes":{
						"POSITION":8,
						"NORMAL":9,
						"TEXCOORD_0":10
					},
					"indices":3,
					"material":0
				},
				{
					"attributes":{
						"POSITION":11,
						"NORMAL":12,
						"TEXCOORD_0":13
					},
					"indices":7,
					"material":1
				}
			]
		},
		{
			"name":"Plane",
			"primitives":[
				{
					"attributes":{
						"POSITION":14,
						"NORMAL":15,
						"TEXCOORD_0":16
					},
					"indices":17,
					"material":2
				}
			]
		},
		{
			"name":"Cylinder.002",
			"primitives":[
				{
					"attributes":{
						"POSITION":18,
						"NORMAL":19,
						"TEXCOORD_0":20
					},
					"indices":3,
					"material":0
				},
				{
					"attributes":{
						"POSITION":21,
						"NORMAL":22,
						"TEXCOORD_0":23
					},
					"indices":7,
					"material":1
				}
			]
		},
		{
			"name":"Cylinder.003",
			"primitives":[
				{
					"attributes":{
						"POSITION":24,
						"NORMAL":25,
						"TEXCOORD_0":26
					},
					"indices":3,
					"material":0
				},
				{
					"attributes":{
						"POSITION":27,
						"NORMAL":28,
						"TEXCOORD_0":29
					},
					"indices":7,
					"material":1
				}
			]
		},
		{
			"name":"Cylinder.005",
			"primitives":[
				{
					"attributes":{
						"POSITION":30,
						"NORMAL":31,
						"TEXCOORD_0":32
					},
					"indices":3,
					"material":0
				},
				{
					"attributes":{
						"POSITION":33,
						"NORMAL":34,
						"TEXCOORD_0":35
					},
					"indices":7,
					"material":1
				}
			]
		},
		{
			"name":"Cylinder.006",
			"primitives":[
				{
					"attributes":{
						"POSITION":36,
						"NORMAL":37,
						"TEXCOORD_0":38
					},
					"indices":3,
					"material":0
				},
				{
					"attributes":{
						"POSITION":39,
						"NORMAL":40,
						"TEXCOORD_0":41
					},
					"indices":7,
					"material":1
				}
			]
		}
	],
	"accessors":[
		{
			"bufferView":0,
			"componentType":5126,
			"count":87,
			"max":[
				32.26960754394531,
				33.16783905029297,
				-0.5563483834266663
			],
			"min":[
				-34.23693084716797,
				-41.533348083496094,
				-587.7913208007812
			],
			"type":"VEC3"
		},
		{
			"bufferView":1,
			"componentType":5126,
			"count":87,
			"type":"VEC3"
		},
		{
			"bufferView":2,
			"componentType":5126,
			"count":87,
			"type":"VEC2"
		},
		{
			"bufferView":3,
			"componentType":5123,
			"count":246,
			"type":"SCALAR"
		},
		{
			"bufferView":4,
			"componentType":5126,
			"count":254,
			"max":[
				305.2030944824219,
				308.2057800292969,
				-432.2698669433594
			],
			"min":[
				-283.9028625488281,
				-312.5535888671875,
				-712.9436645507812
			],
			"type":"VEC3"
		},
		{
			"bufferView":5,
			"componentType":5126,
			"count":254,
			"type":"VEC3"
		},
		{
			"bufferView":6,
			"componentType":5126,
			"count":254,
			"type":"VEC2"
		},
		{
			"bufferView":7,
			"componentType":5123,
			"count":882,
			"type":"SCALAR"
		},
		{
			"bufferView":8,
			"componentType":5126,
			"count":87,
			"max":[
				32.26960754394531,
				33.16783905029297,
				-0.5563483834266663
			],
			"min":[
				-34.23693084716797,
				-41.533348083496094,
				-587.7913208007812
			],
			"type":"VEC3"
		},
		{
			"bufferView":9,
			"componentType":5126,
			"count":87,
			"type":"VEC3"
		},
		{
			"bufferView":10,
			"componentType":5126,
			"count":87,
			"type":"VEC2"
		},
		{
			"bufferView":11,
			"componentType":5126,
			"count":254,
			"max":[
				305.2030944824219,
				308.2057800292969,
				-432.2698669433594
			],
			"min":[
				-283.9028625488281,
				-312.5535888671875,
				-712.9436645507812
			],
			"type":"VEC3"
		},
		{
			"bufferView":12,
			"componentType":5126,
			"count":254,
			"type":"VEC3"
		},
		{
			"bufferView":13,
			"componentType":5126,
			"count":254,
			"type":"VEC2"
		},
		{
			"bufferView":14,
			"componentType":5126,
			"count":2178,
			"max":[
				1.369375228881836,
				0.16086465120315552,
				1
			],
			"min":[
				-1.369375228881836,
				0,
				-1
			],
			"type":"VEC3"
		},
		{
			"bufferView":15,
			"componentType":5126,
			"count":2178,
			"type":"VEC3"
		},
		{
			"bufferView":16,
			"componentType":5126,
			"count":2178,
			"type":"VEC2"
		},
		{
			"bufferView":17,
			"componentType":5123,
			"count":12288,
			"type":"SCALAR"
		},
		{
			"bufferView":18,
			"componentType":5126,
			"count":87,
			"max":[
				32.26960754394531,
				33.16783905029297,
				-0.5563483834266663
			],
			"min":[
				-34.23693084716797,
				-41.533348083496094,
				-587.7913208007812
			],
			"type":"VEC3"
		},
		{
			"bufferView":19,
			"componentType":5126,
			"count":87,
			"type":"VEC3"
		},
		{
			"bufferView":20,
			"componentType":5126,
			"count":87,
			"type":"VEC2"
		},
		{
			"bufferView":21,
			"componentType":5126,
			"count":254,
			"max":[
				305.2030944824219,
				308.2057800292969,
				-432.2698669433594
			],
			"min":[
				-283.9028625488281,
				-312.5535888671875,
				-712.9436645507812
			],
			"type":"VEC3"
		},
		{
			"bufferView":22,
			"componentType":5126,
			"count":254,
			"type":"VEC3"
		},
		{
			"bufferView":23,
			"componentType":5126,
			"count":254,
			"type":"VEC2"
		},
		{
			"bufferView":24,
			"componentType":5126,
			"count":87,
			"max":[
				32.26960754394531,
				33.16783905029297,
				-0.5563483834266663
			],
			"min":[
				-34.23693084716797,
				-41.533348083496094,
				-587.7913208007812
			],
			"type":"VEC3"
		},
		{
			"bufferView":25,
			"componentType":5126,
			"count":87,
			"type":"VEC3"
		},
		{
			"bufferView":26,
			"componentType":5126,
			"count":87,
			"type":"VEC2"
		},
		{
			"bufferView":27,
			"componentType":5126,
			"count":254,
			"max":[
				305.2030944824219,
				308.2057800292969,
				-432.2698669433594
			],
			"min":[
				-283.9028625488281,
				-312.5535888671875,
				-712.9436645507812
			],
			"type":"VEC3"
		},
		{
			"bufferView":28,
			"componentType":5126,
			"count":254,
			"type":"VEC3"
		},
		{
			"bufferView":29,
			"componentType":5126,
			"count":254,
			"type":"VEC2"
		},
		{
			"bufferView":30,
			"componentType":5126,
			"count":87,
			"max":[
				32.26960754394531,
				33.16783905029297,
				-0.5563483834266663
			],
			"min":[
				-34.23693084716797,
				-41.533348083496094,
				-587.7913208007812
			],
			"type":"VEC3"
		},
		{
			"bufferView":31,
			"componentType":5126,
			"count":87,
			"type":"VEC3"
		},
		{
			"bufferView":32,
			"componentType":5126,
			"count":87,
			"type":"VEC2"
		},
		{
			"bufferView":33,
			"componentType":5126,
			"count":254,
			"max":[
				305.2030944824219,
				308.2057800292969,
				-432.2698669433594
			],
			"min":[
				-283.9028625488281,
				-312.5535888671875,
				-712.9436645507812
			],
			"type":"VEC3"
		},
		{
			"bufferView":34,
			"componentType":5126,
			"count":254,
			"type":"VEC3"
		},
		{
			"bufferView":35,
			"componentType":5126,
			"count":254,
			"type":"VEC2"
		},
		{
			"bufferView":36,
			"componentType":5126,
			"count":87,
			"max":[
				32.26960754394531,
				33.16783905029297,
				-0.5563483834266663
			],
			"min":[
				-34.23693084716797,
				-41.533348083496094,
				-587.7913208007812
			],
			"type":"VEC3"
		},
		{
			"bufferView":37,
			"componentType":5126,
			"count":87,
			"type":"VEC3"
		},
		{
			"bufferView":38,
			"componentType":5126,
			"count":87,
			"type":"VEC2"
		},
		{
			"bufferView":39,
			"componentType":5126,
			"count":254,
			"max":[
				305.2030944824219,
				308.2057800292969,
				-432.2698669433594
			],
			"min":[
				-283.9028625488281,
				-312.5535888671875,
				-712.9436645507812
			],
			"type":"VEC3"
		},
		{
			"bufferView":40,
			"componentType":5126,
			"count":254,
			"type":"VEC3"
		},
		{
			"bufferView":41,
			"componentType":5126,
			"count":254,
			"type":"VEC2"
		}
	],
	"bufferViews":[
		{
			"buffer":0,
			"byteLength":1044,
			"byteOffset":0,
			"target":34962
		},
		{
			"buffer":0,
			"byteLength":1044,
			"byteOffset":1044,
			"target":34962
		},
		{
			"buffer":0,
			"byteLength":696,
			"byteOffset":2088,
			"target":34962
		},
		{
			"buffer":0,
			"byteLength":492,
			"byteOffset":2784,
			"target":34963
		},
		{
			"buffer":0,
			"byteLength":3048,
			"byteOffset":3276,
			"target":34962
		},
		{
			"buffer":0,
			"byteLength":3048,
			"byteOffset":6324,
			"target":34962
		},
		{
			"buffer":0,
			"byteLength":2032,
			"byteOffset":9372,
			"target":34962
		},
		{
			"buffer":0,
			"byteLength":1764,
			"byteOffset":11404,
			"target":34963
		},
		{
			"buffer":0,
			"byteLength":1044,
			"byteOffset":13168,
			"target":34962
		},
		{
			"buffer":0,
			"byteLength":1044,
			"byteOffset":14212,
			"target":34962
		},
		{
			"buffer":0,
			"byteLength":696,
			"byteOffset":15256,
			"target":34962
		},
		{
			"buffer":0,
			"byteLength":3048,
			"byteOffset":15952,
			"target":34962
		},
		{
			"buffer":0,
			"byteLength":3048,
			"byteOffset":19000,
			"target":34962
		},
		{
			"buffer":0,
			"byteLength":2032,
			"byteOffset":22048,
			"target":34962
		},
		{
			"buffer":0,
			"byteLength":26136,
			"byteOffset":24080,
			"target":34962
		},
		{
			"buffer":0,
			"byteLength":26136,
			"byteOffset":50216,
			"target":34962
		},
		{
			"buffer":0,
			"byteLength":17424,
			"byteOffset":76352,
			"target":34962
		},
		{
			"buffer":0,
			"byteLength":24576,
			"byteOffset":93776,
			"target":34963
		},
		{
			"buffer":0,
			"byteLength":1044,
			"byteOffset":118352,
			"target":34962
		},
		{
			"buffer":0,
			"byteLength":1044,
			"byteOffset":119396,
			"target":34962
		},
		{
			"buffer":0,
			"byteLength":696,
			"byteOffset":120440,
			"target":34962
		},
		{
			"buffer":0,
			"byteLength":3048,
			"byteOffset":121136,
			"target":34962
		},
		{
			"buffer":0,
			"byteLength":3048,
			"byteOffset":124184,
			"target":34962
		},
		{
			"buffer":0,
			"byteLength":2032,
			"byteOffset":127232,
			"target":34962
		},
		{
			"buffer":0,
			"byteLength":1044,
			"byteOffset":129264,
			"target":34962
		},
		{
			"buffer":0,
			"byteLength":1044,
			"byteOffset":130308,
			"target":34962
		},
		{
			"buffer":0,
			"byteLength":696,
			"byteOffset":131352,
			"target":34962
		},
		{
			"buffer":0,
			"byteLength":3048,
			"byteOffset":132048,
			"target":34962
		},
		{
			"buffer":0,
			"byteLength":3048,
			"byteOffset":135096,
			"target":34962
		},
		{
			"buffer":0,
			"byteLength":2032,
			"byteOffset":138144,
			"target":34962
		},
		{
			"buffer":0,
			"byteLength":1044,
			"byteOffset":140176,
			"target":34962
		},
		{
			"buffer":0,
			"byteLength":1044,
			"byteOffset":141220,
			"target":34962
		},
		{
			"buffer":0,
			"byteLength":696,
			"byteOffset":142264,
			"target":34962
		},
		{
			"buffer":0,
			"byteLength":3048,
			"byteOffset":142960,
			"target":34962
		},
		{
			"buffer":0,
			"byteLength":3048,
			"byteOffset":146008,
			"target":34962
		},
		{
			"buffer":0,
			"byteLength":2032,
			"byteOffset":149056,
			"target":34962
		},
		{
			"buffer":0,
			"byteLength":1044,
			"byteOffset":151088,
			"target":34962
		},
		{
			"buffer":0,
			"byteLength":1044,
			"byteOffset":152132,
			"target":34962
		},
		{
			"buffer":0,
			"byteLength":696,
			"byteOffset":153176,
			"target":34962
		},
		{
			"buffer":0,
			"byteLength":3048,
			"byteOffset":153872,
			"target":34962
		},
		{
			"buffer":0,
			"byteLength":3048,
			"byteOffset":156920,
			"target":34962
		},
		{
			"buffer":0,
			"byteLength":2032,
			"byteOffset":159968,
			"target":34962
		}
	],
	"buffers":[
		{
			"byteLength":162000,
			"uri":"palmtree02.bin"
		}
	]
}
